<svg width="40" height="40" viewBox="0 0 40 40" fill="none" xmlns="http://www.w3.org/2000/svg">
<g clip-path="url(#clip0_1_3450)">
<rect width="40" height="40" fill="white"/>
<path d="M20.0089 11.0156C14.3303 11.0156 9.74998 15.0234 9.74998 19.9922C9.74998 24.9609 14.3303 28.9687 20.0089 28.9687C25.6875 28.9687 30.2678 24.9609 30.2678 19.9922C30.2678 15.0234 25.6875 11.0156 20.0089 11.0156ZM20.0089 25.8281C16.3393 25.8281 13.3393 23.2109 13.3393 19.9922C13.3393 16.7734 16.3303 14.1562 20.0089 14.1562C23.6875 14.1562 26.6786 16.7734 26.6786 19.9922C26.6786 23.2109 23.6786 25.8281 20.0089 25.8281ZM33.0803 10.6484C33.0803 11.8125 32.0089 12.7422 30.6875 12.7422C29.3571 12.7422 28.2946 11.8047 28.2946 10.6484C28.2946 9.49219 29.3661 8.55469 30.6875 8.55469C32.0089 8.55469 33.0803 9.49219 33.0803 10.6484ZM39.875 12.7734C39.7232 9.96875 38.9911 7.48437 36.6428 5.4375C34.3036 3.39062 31.4643 2.75 28.2589 2.60937C24.9553 2.44531 15.0536 2.44531 11.75 2.60937C8.55355 2.74219 5.71427 3.38281 3.36605 5.42969C1.01784 7.47656 0.294625 9.96094 0.133911 12.7656C-0.0535889 15.6562 -0.0535889 24.3203 0.133911 27.2109C0.285697 30.0156 1.01784 32.5 3.36605 34.5469C5.71427 36.5937 8.54463 37.2344 11.75 37.375C15.0536 37.5391 24.9553 37.5391 28.2589 37.375C31.4643 37.2422 34.3036 36.6016 36.6428 34.5469C38.9821 32.5 39.7143 30.0156 39.875 27.2109C40.0625 24.3203 40.0625 15.6641 39.875 12.7734ZM35.6071 30.3125C34.9107 31.8437 33.5625 33.0234 31.8036 33.6406C29.1696 34.5547 22.9196 34.3437 20.0089 34.3437C17.0982 34.3437 10.8393 34.5469 8.21427 33.6406C6.46427 33.0312 5.11605 31.8516 4.4107 30.3125C3.36605 28.0078 3.60713 22.5391 3.60713 19.9922C3.60713 17.4453 3.37498 11.9687 4.4107 9.67187C5.10713 8.14062 6.45534 6.96094 8.21427 6.34375C10.8482 5.42969 17.0982 5.64062 20.0089 5.64062C22.9196 5.64062 29.1786 5.4375 31.8036 6.34375C33.5536 6.95312 34.9018 8.13281 35.6071 9.67187C36.6518 11.9766 36.4107 17.4453 36.4107 19.9922C36.4107 22.5391 36.6518 28.0156 35.6071 30.3125Z" fill="#58BF16"/>
</g>
<defs>
<clipPath id="clip0_1_3450">
<rect width="40" height="40" fill="white"/>
</clipPath>
</defs>
</svg>
