<svg width="90" height="50" viewBox="0 0 90 50" fill="none" xmlns="http://www.w3.org/2000/svg">
<path fill-rule="evenodd" clip-rule="evenodd" d="M36.8921 35.9309C37.8096 34.9735 47.1032 25.2343 47.2238 24.9811C46.8867 24.7194 45.448 23.1143 44.9456 22.6011C44.5258 22.1722 44.2245 21.8413 43.8043 21.4088C43.561 21.1585 42.8759 20.3665 42.6632 20.2577L23.5045 40.4537L17.6106 36.614C16.6457 35.9696 15.6707 35.358 14.6885 34.7024L1.51073 26.0856C1.18156 25.867 0.318014 25.2453 0 25.1532L23.5519 50L36.8921 35.9309Z" fill="#5BC00F"/>
<path fill-rule="evenodd" clip-rule="evenodd" d="M3.26245 21.3493L8.16465 24.5574C8.4123 24.7155 8.6499 24.9072 8.89477 25.0025L23.5062 9.57054C23.7008 9.66783 31.2003 17.6541 32.0664 18.5622C32.5536 19.073 32.9742 19.4955 33.4859 20.0604C33.7293 20.329 34.7363 21.4592 34.9573 21.5626C35.1713 21.4205 37.919 18.4742 38.3364 18.0285C38.563 17.7866 39.3571 17.0321 39.4499 16.7958C38.8118 16.2005 35.9357 13.1293 35.475 12.6184C34.778 11.8456 34.1952 11.2789 33.4876 10.5196L27.4988 4.2057C26.7825 3.44013 26.2359 2.8669 25.5121 2.10751L23.5045 0L3.26245 21.3493Z" fill="#B1B1B1"/>
<path fill-rule="evenodd" clip-rule="evenodd" d="M77.4241 22.6207C78.3972 22.5873 79.4126 22.6153 80.3903 22.6153C81.0968 22.6153 82.577 22.5186 83.0697 22.8648C83.1056 23.7567 83.1936 24.225 82.6874 24.3753C82.0719 24.5581 78.239 24.4714 77.4118 24.4754L77.4241 22.6207ZM77.4283 26.4208C78.8956 26.3758 80.3907 26.4586 81.8575 26.4132C83.2783 26.3692 84.4621 25.9497 84.9383 24.954C85.2151 24.3753 85.1597 23.5094 85.1423 22.8018C85.1232 22.0291 84.7546 21.6227 84.3053 21.3189C83.2804 20.6258 81.7975 20.6788 80.4377 20.6788C79.7445 20.6788 76.4033 20.6362 76.0141 20.693C75.2559 20.8036 75.3307 21.4981 75.3307 22.3036V26.9979C75.3307 28.4573 75.0986 29.2388 76.6066 29.1521C77.8477 29.0807 77.2625 27.5327 77.4283 26.4208Z" fill="#B1B1B1"/>
<path fill-rule="evenodd" clip-rule="evenodd" d="M70.7206 26.8845C69.9764 27.3648 68.5558 27.2119 67.565 27.2119C65.0607 27.2119 65.1751 27.2455 65.1751 26.0991L65.1747 23.4016C65.1715 23.0234 65.113 22.8626 65.427 22.7424C66.2168 22.4399 68.1043 22.9337 68.4929 22.2836C68.7253 21.8949 68.6738 21.1123 68.3677 20.8572C68.0272 20.5736 67.3047 20.679 66.8077 20.6788C65.7557 20.6782 64.76 20.8215 63.9983 21.3371C63.0766 21.9611 63.0955 22.6199 63.0955 24.0516C63.0955 24.8897 62.999 26.9891 63.2364 27.6189C63.938 29.4797 67.1257 29.1535 68.7008 29.1535C70.857 29.1535 72.9591 29.0724 72.8126 26.1476C72.7028 23.956 69.5087 23.7895 67.9896 23.9513C67.43 24.0109 67.2687 24.3806 67.2884 25.0003C67.3283 26.2599 68.435 25.771 69.9325 25.9057C70.6825 25.9731 70.8284 26.0369 70.7205 26.8845H70.7206Z" fill="#B1B1B1"/>
<path fill-rule="evenodd" clip-rule="evenodd" d="M53.7945 26.21C55.0426 26.1185 57.8891 26.2033 59.426 26.2016C60.0844 26.2009 60.3926 25.9377 60.4246 25.2518C60.4594 24.503 60.1538 24.2988 59.473 24.2958L53.7912 24.2964L53.778 23.2924C54.2575 22.9537 55.1182 23.0026 55.7808 23.0027C56.6529 23.0028 57.1895 23.0739 57.1892 22.0539C57.1889 21.1026 56.5984 21.107 55.7808 21.1072C54.5997 21.1075 52.9225 21.1561 52.1662 22.1847C51.718 22.7943 51.7572 23.2753 51.7572 24.2014C51.7572 25.0171 51.7583 25.8329 51.7571 26.6486C51.7557 27.5084 51.8709 28.0809 52.3309 28.4923C53.2627 29.3254 54.6505 29.3214 56.1121 29.3214C56.885 29.3214 57.658 29.3214 58.431 29.3214C59.136 29.3214 60.0434 29.4859 60.3238 28.895C60.4692 28.5884 60.6376 27.4637 59.6129 27.42C58.2707 27.3628 56.4169 27.4391 54.9762 27.4175C53.6416 27.3974 53.7623 27.1374 53.7945 26.21V26.21Z" fill="#B1B1B1"/>
<path fill-rule="evenodd" clip-rule="evenodd" d="M88.3003 20.743C87.7031 21.0286 87.8782 21.8171 87.8782 22.9531L87.8769 28.249C87.8763 28.7033 88.0054 28.9952 88.3236 29.1092C88.5247 29.1811 89.3364 29.1789 89.5355 29.1038C90.1775 28.8616 89.967 27.6249 89.967 26.8984L89.9682 21.604C89.9681 21.1585 89.8686 20.831 89.51 20.7186C89.2689 20.6429 88.5059 20.6447 88.3002 20.743H88.3003Z" fill="#5BC00F"/>
<path fill-rule="evenodd" clip-rule="evenodd" d="M77.4118 24.4756C78.239 24.4715 82.0719 24.5583 82.6873 24.3755C83.1935 24.2251 83.1056 23.7568 83.0697 22.8649C82.577 22.5187 81.0968 22.6155 80.3903 22.6155C79.4126 22.6155 78.3971 22.5875 77.4241 22.6208L77.4118 24.4756Z" fill="white"/>
</svg>
