<svg width="40" height="40" viewBox="0 0 40 40" fill="none" xmlns="http://www.w3.org/2000/svg">
<g clip-path="url(#clip0_1_3452)">
<path d="M38.914 0.437494C39.7031 0.984368 40.1171 1.92968 39.9687 2.87499L34.9687 35.375C34.8515 36.1328 34.3906 36.7969 33.7187 37.1719C33.0468 37.5469 32.2421 37.5937 31.5312 37.2969L22.1875 33.4141L16.8359 39.2031C16.1406 39.9609 15.0468 40.2109 14.0859 39.8359C13.125 39.4609 12.5 38.5312 12.5 37.5V30.9687C12.5 30.6562 12.6171 30.3594 12.8281 30.1328L25.9218 15.8437C26.375 15.3516 26.3593 14.5937 25.8906 14.125C25.4218 13.6562 24.664 13.625 24.1718 14.0703L8.28121 28.1875L1.38277 24.7344C0.554647 24.3203 0.0233967 23.4922 -4.07777e-05 22.5703C-0.0234783 21.6484 0.460897 20.7891 1.25777 20.3281L36.2578 0.328119C37.0937 -0.148444 38.125 -0.101569 38.914 0.437494Z" fill="#58BF16"/>
</g>
<defs>
<clipPath id="clip0_1_3452">
<rect width="40" height="40" fill="white"/>
</clipPath>
</defs>
</svg>
